<svg width="143" height="38" viewBox="0 0 143 38" fill="none" xmlns="http://www.w3.org/2000/svg">
<g clip-path="url(#clip0_2_232)">
<path d="M18 37C27.9411 37 36 28.9411 36 19C36 9.05887 27.9411 1 18 1C8.05887 1 0 9.05887 0 19C0 28.9411 8.05887 37 18 37Z" fill="#2B2E3A"/>
<path d="M14.1331 11.0814C10.4761 10.4154 7.58461 11.1125 6.43219 13.1085C5.57227 14.598 5.81808 16.5728 7.02844 18.6838C7.05234 18.7276 7.08475 18.7662 7.12378 18.7974C7.16281 18.8285 7.20766 18.8516 7.25571 18.8651C7.30376 18.8787 7.35404 18.8826 7.4036 18.8765C7.45316 18.8704 7.501 18.8544 7.54432 18.8296C7.58763 18.8047 7.62555 18.7715 7.65585 18.7318C7.68615 18.6921 7.70822 18.6468 7.72076 18.5984C7.7333 18.5501 7.73606 18.4998 7.72889 18.4503C7.72171 18.4009 7.70474 18.3534 7.67897 18.3107C6.58885 16.4091 6.37664 14.7049 7.08174 13.4836C8.03911 11.8255 10.6182 11.2036 13.9987 11.8193C14.0958 11.8355 14.1954 11.8128 14.276 11.7561C14.3565 11.6995 14.4116 11.6134 14.4292 11.5166C14.4469 11.4197 14.4257 11.3197 14.3703 11.2383C14.3149 11.1569 14.2297 11.1006 14.1331 11.0814ZM8.93011 21.2496C10.4088 22.8745 12.3299 24.3988 14.5208 25.6635C19.8256 28.7263 25.4731 29.5449 28.2563 27.6472C28.298 27.6199 28.3337 27.5845 28.3616 27.5432C28.3894 27.5019 28.4087 27.4554 28.4184 27.4066C28.428 27.3577 28.4279 27.3074 28.4179 27.2586C28.408 27.2098 28.3884 27.1635 28.3603 27.1224C28.3323 27.0812 28.2963 27.0461 28.2545 27.019C28.2127 26.9919 28.1659 26.9734 28.1169 26.9646C28.0679 26.9558 28.0176 26.9568 27.969 26.9676C27.9204 26.9784 27.8744 26.9988 27.8338 27.0276C25.3427 28.7261 19.9782 27.9484 14.8958 25.0141C12.7704 23.787 10.9101 22.311 9.48488 20.7448C9.45179 20.7081 9.41179 20.6784 9.36717 20.6572C9.32256 20.6361 9.27421 20.6239 9.22489 20.6215C9.17558 20.6191 9.12627 20.6264 9.0798 20.6431C9.03333 20.6598 8.99061 20.6855 8.95409 20.7187C8.91757 20.7519 8.88797 20.7921 8.867 20.8368C8.84602 20.8815 8.83407 20.9298 8.83185 20.9792C8.82962 21.0285 8.83715 21.0778 8.85402 21.1242C8.87088 21.1706 8.89674 21.2132 8.93011 21.2496Z" fill="#9FEAF9"/>
<path d="M27.3684 20.7935C29.763 17.9646 30.599 15.1195 29.449 13.1277C28.6028 11.662 26.8139 10.8881 24.4364 10.8572C24.3378 10.8573 24.2433 10.8962 24.1733 10.9655C24.1032 11.0348 24.0632 11.1288 24.0619 11.2274C24.0606 11.3259 24.0982 11.421 24.1664 11.492C24.2347 11.5631 24.3282 11.6044 24.4267 11.6071C26.5649 11.635 28.1061 12.3017 28.7996 13.5028C29.7547 15.1572 29.0091 17.6944 26.7959 20.3089C26.7635 20.3464 26.7387 20.3899 26.7232 20.4371C26.7077 20.4842 26.7017 20.5339 26.7055 20.5834C26.7094 20.6328 26.723 20.681 26.7455 20.7252C26.7681 20.7693 26.7993 20.8086 26.8371 20.8406C26.875 20.8727 26.9188 20.8969 26.9661 20.9119C27.0134 20.9269 27.0632 20.9323 27.1126 20.928C27.162 20.9236 27.2101 20.9094 27.254 20.8863C27.2979 20.8632 27.3368 20.8317 27.3684 20.7935ZM21.2145 11.2063C19.0495 11.6703 16.7449 12.5773 14.5317 13.855C9.05552 17.0167 5.48322 21.6788 5.97935 25.0593C5.98596 25.1085 6.00228 25.1559 6.02735 25.1987C6.05241 25.2416 6.08573 25.279 6.12538 25.3089C6.16502 25.3388 6.2102 25.3605 6.25829 25.3727C6.30639 25.385 6.35644 25.3876 6.40555 25.3804C6.45466 25.3732 6.50184 25.3563 6.54438 25.3307C6.58691 25.3051 6.62394 25.2714 6.65332 25.2314C6.68271 25.1913 6.70386 25.1459 6.71555 25.0977C6.72724 25.0494 6.72924 24.9994 6.72143 24.9503C6.28085 21.9488 9.6671 17.5297 14.9068 14.5046C17.0537 13.265 19.2851 12.3868 21.3716 11.9397C21.4204 11.9301 21.4669 11.9108 21.5082 11.8831C21.5495 11.8553 21.5849 11.8196 21.6122 11.7781C21.6396 11.7365 21.6585 11.6899 21.6677 11.641C21.6769 11.5921 21.6762 11.5419 21.6658 11.4932C21.6554 11.4445 21.6354 11.3984 21.6069 11.3576C21.5785 11.3167 21.5423 11.2819 21.5003 11.2552C21.4583 11.2285 21.4114 11.2105 21.3623 11.2021C21.3132 11.1937 21.263 11.1951 21.2145 11.2063Z" fill="#9FEAF9"/>
<path d="M12.3426 27.4029C13.5948 30.8988 15.643 33.0514 17.9461 33.0514C19.6259 33.0514 21.1799 31.9063 22.3919 29.8904C22.4181 29.8482 22.4357 29.8011 22.4435 29.7521C22.4514 29.703 22.4495 29.6528 22.4378 29.6045C22.4262 29.5562 22.405 29.5107 22.3756 29.4706C22.3462 29.4305 22.3091 29.3967 22.2665 29.3711C22.2239 29.3455 22.1766 29.3286 22.1274 29.3214C22.0782 29.3142 22.0281 29.3169 21.98 29.3292C21.9318 29.3416 21.8866 29.3634 21.847 29.3934C21.8073 29.4234 21.774 29.461 21.7491 29.504C20.6599 31.3156 19.3221 32.3013 17.9461 32.3013C16.0329 32.3013 14.2061 30.3815 13.0489 27.1502C13.033 27.1029 13.0079 27.0592 12.9749 27.0217C12.942 26.9842 12.9019 26.9537 12.857 26.9319C12.8121 26.9101 12.7634 26.8975 12.7135 26.8948C12.6637 26.8921 12.6138 26.8994 12.5669 26.9162C12.5199 26.933 12.4767 26.959 12.4399 26.9927C12.4031 27.0264 12.3734 27.0671 12.3526 27.1125C12.3317 27.1578 12.3201 27.2068 12.3184 27.2567C12.3167 27.3065 12.325 27.3563 12.3428 27.4029H12.3426ZM23.7786 26.719C24.4268 24.6479 24.7749 22.2587 24.7749 19.7689C24.7749 13.5562 22.6004 8.20068 19.5033 6.8255C19.4128 6.78761 19.3111 6.78667 19.2199 6.82288C19.1288 6.8591 19.0554 6.92959 19.0156 7.01924C18.9758 7.1089 18.9727 7.21058 19.007 7.30248C19.0413 7.39439 19.1102 7.46921 19.199 7.51091C21.9613 8.73758 24.0248 13.8202 24.0248 19.7689C24.0248 22.1844 23.6877 24.4981 23.0629 26.495C23.0474 26.5422 23.0414 26.5921 23.0453 26.6416C23.0492 26.6911 23.0629 26.7394 23.0857 26.7836C23.1084 26.8278 23.1397 26.8671 23.1777 26.8991C23.2157 26.9311 23.2598 26.9552 23.3072 26.9701C23.3546 26.9849 23.4045 26.9902 23.454 26.9856C23.5035 26.9809 23.5516 26.9665 23.5955 26.9432C23.6393 26.9198 23.6781 26.888 23.7096 26.8495C23.741 26.811 23.7645 26.7667 23.7787 26.719H23.7786ZM30.8413 26.3517C30.8413 25.3604 30.0378 24.5569 29.0465 24.5569C28.0552 24.5569 27.2517 25.3604 27.2517 26.3517C27.2517 27.343 28.0552 28.1465 29.0465 28.1465C30.0378 28.1465 30.8413 27.343 30.8413 26.3517ZM30.0914 26.3517C30.0914 26.4889 30.0643 26.6248 30.0118 26.7516C29.9593 26.8783 29.8823 26.9935 29.7853 27.0905C29.6883 27.1875 29.5731 27.2645 29.4464 27.317C29.3196 27.3695 29.1837 27.3966 29.0465 27.3966C28.9093 27.3966 28.7734 27.3695 28.6467 27.317C28.5199 27.2645 28.4047 27.1875 28.3077 27.0905C28.2107 26.9935 28.1337 26.8783 28.0812 26.7516C28.0287 26.6248 28.0017 26.4889 28.0017 26.3517C28.0017 26.0746 28.1117 25.8088 28.3077 25.6129C28.5036 25.4169 28.7694 25.3069 29.0465 25.3069C29.3236 25.3069 29.5894 25.4169 29.7853 25.6129C29.9813 25.8088 30.0914 26.0746 30.0914 26.3517ZM6.81988 28.1465C7.81129 28.1465 8.61482 27.343 8.61482 26.3517C8.61482 25.3604 7.81115 24.5569 6.81988 24.5569C5.82876 24.5569 5.02509 25.3604 5.02509 26.3517C5.02509 27.343 5.82876 28.1465 6.81988 28.1465ZM6.81988 27.3965C6.54277 27.3966 6.27701 27.2865 6.08107 27.0905C5.88512 26.8946 5.77504 26.6288 5.77504 26.3517C5.77504 26.0746 5.88512 25.8088 6.08107 25.6129C6.27701 25.4169 6.54277 25.3069 6.81988 25.3069C7.09699 25.3069 7.36275 25.4169 7.5587 25.6129C7.75464 25.8088 7.86473 26.0746 7.86473 26.3517C7.86473 26.6288 7.75464 26.8946 7.5587 27.0905C7.36275 27.2865 7.09699 27.3965 6.81988 27.3965Z" fill="#9FEAF9"/>
<path d="M17.9461 8.65624C18.9374 8.65624 19.7409 7.85271 19.7409 6.86145C19.7409 5.87018 18.9374 5.06665 17.9461 5.06665C16.9548 5.06665 16.1513 5.87018 16.1513 6.86145C16.1513 7.85271 16.9548 8.65624 17.9461 8.65624ZM17.9461 7.90629C17.669 7.90629 17.4032 7.79621 17.2073 7.60026C17.0113 7.40432 16.9013 7.13856 16.9013 6.86145C16.9013 6.58434 17.0113 6.31858 17.2073 6.12263C17.4032 5.92669 17.669 5.8166 17.9461 5.8166C18.2232 5.8166 18.489 5.92669 18.6849 6.12263C18.8809 6.31858 18.9909 6.58434 18.9909 6.86145C18.9909 7.13856 18.8809 7.40432 18.6849 7.60026C18.489 7.79621 18.2232 7.90629 17.9461 7.90629ZM18.2202 21.0381C17.5192 21.1896 16.8286 20.7441 16.6768 20.0431C16.6042 19.7064 16.6682 19.3547 16.8548 19.0653C17.0414 18.7758 17.3353 18.5724 17.6719 18.4996C18.3729 18.3481 19.0635 18.7936 19.2154 19.4946C19.3668 20.1957 18.9213 20.8864 18.2202 21.0381Z" fill="#9FEAF9"/>
</g>
<path d="M57.2784 7.4375H54.7898C54.7443 7.11553 54.6515 6.82955 54.5114 6.57955C54.3712 6.32576 54.1913 6.10985 53.9716 5.93182C53.7519 5.75379 53.4981 5.61742 53.2102 5.52273C52.9261 5.42803 52.6174 5.38068 52.2841 5.38068C51.6818 5.38068 51.1572 5.5303 50.7102 5.82955C50.2633 6.125 49.9167 6.55682 49.6705 7.125C49.4242 7.68939 49.3011 8.375 49.3011 9.18182C49.3011 10.0114 49.4242 10.7083 49.6705 11.2727C49.9205 11.8371 50.2689 12.2633 50.7159 12.5511C51.1629 12.839 51.6799 12.983 52.267 12.983C52.5966 12.983 52.9015 12.9394 53.1818 12.8523C53.4659 12.7652 53.7178 12.6383 53.9375 12.4716C54.1572 12.3011 54.339 12.0947 54.483 11.8523C54.6307 11.6098 54.733 11.3333 54.7898 11.0227L57.2784 11.0341C57.214 11.5682 57.053 12.0833 56.7955 12.5795C56.5417 13.072 56.1989 13.5133 55.767 13.9034C55.339 14.2898 54.8277 14.5966 54.233 14.8239C53.642 15.0473 52.9735 15.1591 52.2273 15.1591C51.1894 15.1591 50.2614 14.9242 49.4432 14.4545C48.6288 13.9848 47.9848 13.3049 47.5114 12.4148C47.0417 11.5246 46.8068 10.447 46.8068 9.18182C46.8068 7.91288 47.0455 6.83333 47.5227 5.94318C48 5.05303 48.6477 4.375 49.4659 3.90909C50.2841 3.43939 51.2045 3.20455 52.2273 3.20455C52.9015 3.20455 53.5265 3.29924 54.1023 3.48864C54.6818 3.67803 55.1951 3.95455 55.642 4.31818C56.089 4.67803 56.4527 5.11932 56.733 5.64205C57.017 6.16477 57.1989 6.76326 57.2784 7.4375ZM61.4176 9.95455V15H58.9972V3.36364H61.3494V7.8125H61.4517C61.6487 7.29735 61.9669 6.89394 62.4062 6.60227C62.8456 6.30682 63.3968 6.15909 64.0597 6.15909C64.6657 6.15909 65.1941 6.29167 65.6449 6.55682C66.0994 6.81818 66.4517 7.19508 66.7017 7.6875C66.9555 8.17614 67.0805 8.76136 67.0767 9.44318V15H64.6562V9.875C64.66 9.33712 64.5237 8.91856 64.2472 8.61932C63.9744 8.32008 63.5919 8.17045 63.0994 8.17045C62.7699 8.17045 62.4782 8.24053 62.2244 8.38068C61.9744 8.52083 61.7775 8.72538 61.6335 8.99432C61.4934 9.25947 61.4214 9.57955 61.4176 9.95455ZM71.4702 15.1648C70.9134 15.1648 70.4171 15.0682 69.9815 14.875C69.5459 14.678 69.2012 14.3883 68.9474 14.0057C68.6974 13.6193 68.5724 13.1383 68.5724 12.5625C68.5724 12.0777 68.6615 11.6705 68.8395 11.3409C69.0175 11.0114 69.2599 10.7462 69.5668 10.5455C69.8736 10.3447 70.2221 10.1932 70.6122 10.0909C71.0062 9.98864 71.419 9.91667 71.8509 9.875C72.3584 9.82197 72.7675 9.77273 73.0781 9.72727C73.3887 9.67803 73.6141 9.60606 73.7543 9.51136C73.8944 9.41667 73.9645 9.27652 73.9645 9.09091V9.05682C73.9645 8.69697 73.8509 8.41856 73.6236 8.22159C73.4001 8.02462 73.0819 7.92614 72.669 7.92614C72.2334 7.92614 71.8868 8.02273 71.6293 8.21591C71.3717 8.4053 71.2012 8.64394 71.1179 8.93182L68.8793 8.75C68.9929 8.2197 69.2164 7.76136 69.5497 7.375C69.883 6.98485 70.313 6.68561 70.8395 6.47727C71.3698 6.26515 71.9834 6.15909 72.6804 6.15909C73.1652 6.15909 73.6293 6.21591 74.0724 6.32955C74.5194 6.44318 74.9152 6.61932 75.2599 6.85795C75.6084 7.09659 75.883 7.40341 76.0838 7.77841C76.2846 8.14962 76.3849 8.5947 76.3849 9.11364V15H74.0895V13.7898H74.0213C73.8812 14.0625 73.6937 14.303 73.4588 14.5114C73.224 14.7159 72.9418 14.8769 72.6122 14.9943C72.2827 15.108 71.902 15.1648 71.4702 15.1648ZM72.1634 13.4943C72.5194 13.4943 72.8338 13.4242 73.1065 13.2841C73.3793 13.1402 73.5933 12.947 73.7486 12.7045C73.9039 12.4621 73.9815 12.1875 73.9815 11.8807V10.9545C73.9058 11.0038 73.8016 11.0492 73.669 11.0909C73.5402 11.1288 73.3944 11.1648 73.2315 11.1989C73.0687 11.2292 72.9058 11.2576 72.7429 11.2841C72.58 11.3068 72.4323 11.3277 72.2997 11.3466C72.0156 11.3883 71.7675 11.4545 71.5554 11.5455C71.3433 11.6364 71.1785 11.7595 71.0611 11.9148C70.9437 12.0663 70.8849 12.2557 70.8849 12.483C70.8849 12.8125 71.0043 13.0644 71.2429 13.2386C71.4853 13.4091 71.7921 13.4943 72.1634 13.4943ZM78.2628 15V6.27273H80.6094V7.79545H80.7003C80.8594 7.25379 81.1264 6.8447 81.5014 6.56818C81.8764 6.28788 82.3082 6.14773 82.7969 6.14773C82.9181 6.14773 83.0488 6.1553 83.1889 6.17045C83.3291 6.18561 83.4522 6.20644 83.5582 6.23295V8.38068C83.4446 8.34659 83.2874 8.31629 83.0866 8.28977C82.8859 8.26326 82.7022 8.25 82.5355 8.25C82.1795 8.25 81.8613 8.32765 81.581 8.48295C81.3045 8.63447 81.0848 8.84659 80.9219 9.11932C80.7628 9.39205 80.6832 9.70644 80.6832 10.0625V15H78.2628ZM87.2301 3.36364V15H84.8097V3.36364H87.2301ZM89.1236 15V13.5568L93.3963 8.26705V8.20455H89.2713V6.27273H96.3111V7.84659L92.2997 13.0057V13.0682H96.4588V15H89.1236ZM100.503 12.4886L100.509 9.58523H100.861L103.656 6.27273H106.435L102.679 10.6591H102.105L100.503 12.4886ZM98.3097 15V3.36364H100.73V15H98.3097ZM103.764 15L101.196 11.1989L102.81 9.48864L106.599 15H103.764ZM113.376 15H110.74L114.757 3.36364H117.928L121.939 15H119.303L116.388 6.02273H116.297L113.376 15ZM113.212 10.4261H119.439V12.3466H113.212V10.4261ZM123.294 18.2727V6.27273H125.68V7.73864H125.788C125.894 7.50379 126.048 7.26515 126.249 7.02273C126.453 6.77652 126.718 6.57197 127.044 6.40909C127.374 6.24242 127.783 6.15909 128.271 6.15909C128.908 6.15909 129.495 6.32576 130.033 6.65909C130.571 6.98864 131 7.48674 131.322 8.15341C131.644 8.81629 131.805 9.64773 131.805 10.6477C131.805 11.6212 131.648 12.4432 131.334 13.1136C131.023 13.7803 130.599 14.286 130.061 14.6307C129.527 14.9716 128.929 15.142 128.266 15.142C127.796 15.142 127.396 15.0644 127.067 14.9091C126.741 14.7538 126.474 14.5587 126.266 14.3239C126.057 14.0852 125.898 13.8447 125.788 13.6023H125.714V18.2727H123.294ZM125.663 10.6364C125.663 11.1553 125.735 11.608 125.879 11.9943C126.023 12.3807 126.232 12.6818 126.504 12.8977C126.777 13.1098 127.108 13.2159 127.499 13.2159C127.893 13.2159 128.226 13.108 128.499 12.892C128.771 12.6723 128.978 12.3693 129.118 11.983C129.262 11.5928 129.334 11.1439 129.334 10.6364C129.334 10.1326 129.264 9.68939 129.124 9.30682C128.983 8.92424 128.777 8.625 128.504 8.40909C128.232 8.19318 127.896 8.08523 127.499 8.08523C127.105 8.08523 126.771 8.18939 126.499 8.39773C126.23 8.60606 126.023 8.90151 125.879 9.28409C125.735 9.66667 125.663 10.1174 125.663 10.6364ZM133.419 18.2727V6.27273H135.805V7.73864H135.913C136.019 7.50379 136.173 7.26515 136.374 7.02273C136.578 6.77652 136.843 6.57197 137.169 6.40909C137.499 6.24242 137.908 6.15909 138.396 6.15909C139.033 6.15909 139.62 6.32576 140.158 6.65909C140.696 6.98864 141.125 7.48674 141.447 8.15341C141.769 8.81629 141.93 9.64773 141.93 10.6477C141.93 11.6212 141.773 12.4432 141.459 13.1136C141.148 13.7803 140.724 14.286 140.186 14.6307C139.652 14.9716 139.054 15.142 138.391 15.142C137.921 15.142 137.521 15.0644 137.192 14.9091C136.866 14.7538 136.599 14.5587 136.391 14.3239C136.182 14.0852 136.023 13.8447 135.913 13.6023H135.839V18.2727H133.419ZM135.788 10.6364C135.788 11.1553 135.86 11.608 136.004 11.9943C136.148 12.3807 136.357 12.6818 136.629 12.8977C136.902 13.1098 137.233 13.2159 137.624 13.2159C138.018 13.2159 138.351 13.108 138.624 12.892C138.896 12.6723 139.103 12.3693 139.243 11.983C139.387 11.5928 139.459 11.1439 139.459 10.6364C139.459 10.1326 139.389 9.68939 139.249 9.30682C139.108 8.92424 138.902 8.625 138.629 8.40909C138.357 8.19318 138.021 8.08523 137.624 8.08523C137.23 8.08523 136.896 8.18939 136.624 8.39773C136.355 8.60606 136.148 8.90151 136.004 9.28409C135.86 9.66667 135.788 10.1174 135.788 10.6364ZM47.0114 34V22.3636H49.4716V31.9716H54.4602V34H47.0114ZM58.5327 34.1648C57.9759 34.1648 57.4796 34.0682 57.044 33.875C56.6084 33.678 56.2637 33.3883 56.0099 33.0057C55.7599 32.6193 55.6349 32.1383 55.6349 31.5625C55.6349 31.0777 55.724 30.6705 55.902 30.3409C56.08 30.0114 56.3224 29.7462 56.6293 29.5455C56.9361 29.3447 57.2846 29.1932 57.6747 29.0909C58.0687 28.9886 58.4815 28.9167 58.9134 28.875C59.4209 28.822 59.83 28.7727 60.1406 28.7273C60.4512 28.678 60.6766 28.6061 60.8168 28.5114C60.9569 28.4167 61.027 28.2765 61.027 28.0909V28.0568C61.027 27.697 60.9134 27.4186 60.6861 27.2216C60.4626 27.0246 60.1444 26.9261 59.7315 26.9261C59.2959 26.9261 58.9493 27.0227 58.6918 27.2159C58.4342 27.4053 58.2637 27.6439 58.1804 27.9318L55.9418 27.75C56.0554 27.2197 56.2789 26.7614 56.6122 26.375C56.9455 25.9848 57.3755 25.6856 57.902 25.4773C58.4323 25.2652 59.0459 25.1591 59.7429 25.1591C60.2277 25.1591 60.6918 25.2159 61.1349 25.3295C61.5819 25.4432 61.9777 25.6193 62.3224 25.858C62.6709 26.0966 62.9455 26.4034 63.1463 26.7784C63.3471 27.1496 63.4474 27.5947 63.4474 28.1136V34H61.152V32.7898H61.0838C60.9437 33.0625 60.7562 33.303 60.5213 33.5114C60.2865 33.7159 60.0043 33.8769 59.6747 33.9943C59.3452 34.108 58.9645 34.1648 58.5327 34.1648ZM59.2259 32.4943C59.5819 32.4943 59.8963 32.4242 60.169 32.2841C60.4418 32.1402 60.6558 31.947 60.8111 31.7045C60.9664 31.4621 61.044 31.1875 61.044 30.8807V29.9545C60.9683 30.0038 60.8641 30.0492 60.7315 30.0909C60.6027 30.1288 60.4569 30.1648 60.294 30.1989C60.1312 30.2292 59.9683 30.2576 59.8054 30.2841C59.6425 30.3068 59.4948 30.3277 59.3622 30.3466C59.0781 30.3883 58.83 30.4545 58.6179 30.5455C58.4058 30.6364 58.241 30.7595 58.1236 30.9148C58.0062 31.0663 57.9474 31.2557 57.9474 31.483C57.9474 31.8125 58.0668 32.0644 58.3054 32.2386C58.5478 32.4091 58.8546 32.4943 59.2259 32.4943ZM70.9219 30.2841V25.2727H73.3423V34H71.0185V32.4148H70.9276C70.7306 32.9261 70.4029 33.3371 69.9446 33.6477C69.4901 33.9583 68.9351 34.1136 68.2798 34.1136C67.6965 34.1136 67.1832 33.9811 66.7401 33.7159C66.2969 33.4508 65.9503 33.0739 65.7003 32.5852C65.4541 32.0966 65.3291 31.5114 65.3253 30.8295V25.2727H67.7457V30.3977C67.7495 30.9129 67.8878 31.3201 68.1605 31.6193C68.4332 31.9186 68.7988 32.0682 69.2571 32.0682C69.5488 32.0682 69.8215 32.0019 70.0753 31.8693C70.3291 31.733 70.5336 31.5322 70.6889 31.267C70.848 31.0019 70.9257 30.6742 70.9219 30.2841ZM77.6989 28.9545V34H75.2784V25.2727H77.5852V26.8125H77.6875C77.8807 26.3049 78.2045 25.9034 78.6591 25.608C79.1136 25.3087 79.6648 25.1591 80.3125 25.1591C80.9186 25.1591 81.447 25.2917 81.8977 25.5568C82.3485 25.822 82.6989 26.2008 82.9489 26.6932C83.1989 27.1818 83.3239 27.7652 83.3239 28.4432V34H80.9034V28.875C80.9072 28.3409 80.7708 27.9242 80.4943 27.625C80.2178 27.322 79.8371 27.1705 79.3523 27.1705C79.0265 27.1705 78.7386 27.2405 78.4886 27.3807C78.2424 27.5208 78.0492 27.7254 77.9091 27.9943C77.7727 28.2595 77.7027 28.5795 77.6989 28.9545ZM89.1747 34.1705C88.2808 34.1705 87.5118 33.9811 86.8679 33.6023C86.2277 33.2197 85.7353 32.6894 85.3906 32.0114C85.0497 31.3333 84.8793 30.553 84.8793 29.6705C84.8793 28.7765 85.0516 27.9924 85.3963 27.3182C85.7448 26.6402 86.2391 26.1117 86.8793 25.733C87.5194 25.3504 88.2808 25.1591 89.1634 25.1591C89.9247 25.1591 90.5914 25.2973 91.1634 25.5739C91.7353 25.8504 92.188 26.2386 92.5213 26.7386C92.8546 27.2386 93.0384 27.8258 93.0724 28.5H90.7884C90.724 28.0644 90.5535 27.714 90.277 27.4489C90.0043 27.1799 89.6463 27.0455 89.2031 27.0455C88.8281 27.0455 88.5005 27.1477 88.2202 27.3523C87.9437 27.553 87.7277 27.8466 87.5724 28.233C87.4171 28.6193 87.3395 29.0871 87.3395 29.6364C87.3395 30.1932 87.4152 30.6667 87.5668 31.0568C87.7221 31.447 87.9399 31.7443 88.2202 31.9489C88.5005 32.1534 88.8281 32.2557 89.2031 32.2557C89.4796 32.2557 89.7277 32.1989 89.9474 32.0852C90.1709 31.9716 90.3546 31.8068 90.4986 31.5909C90.6463 31.3712 90.7429 31.108 90.7884 30.8011H93.0724C93.0346 31.4678 92.8527 32.0549 92.527 32.5625C92.205 33.0663 91.7599 33.4602 91.1918 33.7443C90.6236 34.0284 89.9512 34.1705 89.1747 34.1705ZM97.0426 28.9545V34H94.6222V22.3636H96.9744V26.8125H97.0767C97.2737 26.2973 97.5919 25.8939 98.0312 25.6023C98.4706 25.3068 99.0218 25.1591 99.6847 25.1591C100.291 25.1591 100.819 25.2917 101.27 25.5568C101.724 25.8182 102.077 26.1951 102.327 26.6875C102.58 27.1761 102.705 27.7614 102.702 28.4432V34H100.281V28.875C100.285 28.3371 100.149 27.9186 99.8722 27.6193C99.5994 27.3201 99.2169 27.1705 98.7244 27.1705C98.3949 27.1705 98.1032 27.2405 97.8494 27.3807C97.5994 27.5208 97.4025 27.7254 97.2585 27.9943C97.1184 28.2595 97.0464 28.5795 97.0426 28.9545ZM108.584 34.1705C107.686 34.1705 106.913 33.9886 106.266 33.625C105.622 33.2576 105.125 32.7386 104.777 32.0682C104.429 31.3939 104.254 30.5966 104.254 29.6761C104.254 28.7784 104.429 27.9905 104.777 27.3125C105.125 26.6345 105.616 26.1061 106.249 25.7273C106.885 25.3485 107.631 25.1591 108.487 25.1591C109.063 25.1591 109.599 25.2519 110.095 25.4375C110.595 25.6193 111.031 25.8939 111.402 26.2614C111.777 26.6288 112.069 27.0909 112.277 27.6477C112.485 28.2008 112.589 28.8485 112.589 29.5909V30.2557H105.22V28.7557H110.311C110.311 28.4072 110.235 28.0985 110.084 27.8295C109.932 27.5606 109.722 27.3504 109.453 27.1989C109.188 27.0436 108.879 26.9659 108.527 26.9659C108.16 26.9659 107.834 27.0511 107.55 27.2216C107.269 27.3883 107.05 27.6136 106.891 27.8977C106.732 28.178 106.65 28.4905 106.646 28.8352V30.2614C106.646 30.6932 106.726 31.0663 106.885 31.3807C107.048 31.6951 107.277 31.9375 107.572 32.108C107.868 32.2784 108.218 32.3636 108.624 32.3636C108.893 32.3636 109.139 32.3258 109.362 32.25C109.586 32.1742 109.777 32.0606 109.936 31.9091C110.095 31.7576 110.216 31.572 110.3 31.3523L112.538 31.5C112.425 32.0379 112.192 32.5076 111.839 32.9091C111.491 33.3068 111.04 33.6174 110.487 33.8409C109.938 34.0606 109.304 34.1705 108.584 34.1705ZM114.169 34V25.2727H116.516V26.7955H116.607C116.766 26.2538 117.033 25.8447 117.408 25.5682C117.783 25.2879 118.214 25.1477 118.703 25.1477C118.824 25.1477 118.955 25.1553 119.095 25.1705C119.235 25.1856 119.358 25.2064 119.464 25.233V27.3807C119.351 27.3466 119.194 27.3163 118.993 27.2898C118.792 27.2633 118.608 27.25 118.442 27.25C118.086 27.25 117.768 27.3277 117.487 27.483C117.211 27.6345 116.991 27.8466 116.828 28.1193C116.669 28.392 116.589 28.7064 116.589 29.0625V34H114.169ZM132.555 25.2727L129.504 34H126.777L123.726 25.2727H126.283L128.095 31.517H128.186L129.993 25.2727H132.555ZM133.771 34V32.2273L137.913 28.392C138.266 28.0511 138.561 27.7443 138.8 27.4716C139.042 27.1989 139.226 26.9318 139.351 26.6705C139.476 26.4053 139.538 26.1193 139.538 25.8125C139.538 25.4716 139.461 25.178 139.305 24.9318C139.15 24.6818 138.938 24.4905 138.669 24.358C138.4 24.2216 138.095 24.1534 137.754 24.1534C137.398 24.1534 137.088 24.2254 136.822 24.3693C136.557 24.5133 136.353 24.7197 136.209 24.9886C136.065 25.2576 135.993 25.5777 135.993 25.9489H133.658C133.658 25.1875 133.83 24.5265 134.175 23.9659C134.519 23.4053 135.002 22.9716 135.624 22.6648C136.245 22.358 136.961 22.2045 137.771 22.2045C138.605 22.2045 139.33 22.3523 139.947 22.6477C140.569 22.9394 141.052 23.3447 141.396 23.8636C141.741 24.3826 141.913 24.9773 141.913 25.6477C141.913 26.0871 141.826 26.5208 141.652 26.9489C141.482 27.3769 141.177 27.8523 140.737 28.375C140.298 28.8939 139.679 29.517 138.879 30.2443L137.18 31.9091V31.9886H142.067V34H133.771Z" fill="white" fill-opacity="0.8"/>
<defs>
<clipPath id="clip0_2_232">
<rect width="36" height="36" fill="white" transform="translate(0 1)"/>
</clipPath>
</defs>
</svg>
